# xmcd
#
# Track frame offsets: 
#        182
#        14632
#        28767
#        48527
#        67517
#        85517
#        101060
#        121092
#        137757
#        153992
#
# Disc length: 2365 seconds
#
# Revision: 4
# Processed by: cddbd v1.5.2PL0 Copyright (c) Steve Scherf et al.
# Submitted via: ExactAudioCopyFreeDBPlugin 1.0
#
DISCID=76093b0a
DTITLE=Suzy Bogguss and Chet Atkins - Simpatico
DYEAR=1994
DGENRE=Country
TTITLE0=In The Jaihouse Now
TTITLE1=When She Smiled At Him
TTITLE2=Forget About It
TTITLE3=Wives Don't Like Old Girlfriends
TTITLE4=Sorry Seems To Be The Hardest Word
TTITLE5=Two Shades Of Blue
TTITLE6=One More For The Road
TTITLE7=I Still Miss Someone
TTITLE8=You Bring Out The Best In Me
TTITLE9=This Is The Beginning
EXTD=YEAR: 1994 ID3G: 2
EXTT0=
EXTT1=
EXTT2=
EXTT3=
EXTT4=
EXTT5=
EXTT6=
EXTT7=
EXTT8=
EXTT9=
PLAYORDER=
